<svg xmlns="http://www.w3.org/2000/svg" width="189.3" height="70.5"><path fill-rule="evenodd" stroke="#000" stroke-linecap="round" stroke-width=".25mm" d="M129 70.5h-23.7L83.2 39.6v30.9H63.6V0h19.6v30.4L105.1 0h22.6l-25.9 34.2L129 70.5ZM132.3 0h57v15.6h-18.8v54.9h-19.6V15.6h-18.6V0Zm-103 46.7h-9.7v23.8H0V0h29.3a40.267 40.267 0 0 1 6.485.496q3.67.599 6.724 1.923A23.738 23.738 0 0 1 43.75 3a22.258 22.258 0 0 1 5.626 3.97A19.502 19.502 0 0 1 52.7 11.3a23.12 23.12 0 0 1 2.801 8.749A29.143 29.143 0 0 1 55.7 23.5a24 24 0 0 1-1.524 8.606 22.64 22.64 0 0 1-1.426 3.044 20.461 20.461 0 0 1-6.44 6.922 25.739 25.739 0 0 1-2.46 1.478Q37.9 46.7 29.3 46.7Zm-1.9-30.9h-7.8v15.3h7.8a13.139 13.139 0 0 0 3.183-.35q4.13-1.035 4.927-5.122a11.133 11.133 0 0 0 .19-2.128 10.221 10.221 0 0 0-.441-3.14Q33.787 15.8 27.4 15.8Z" font-size="12" style="stroke:#000;stroke-width:.25mm;fill:#000" vector-effect="non-scaling-stroke"/>
  <style>
    path { fill: #000; }
    @media (prefers-color-scheme: dark) {
      path { fill: #fff; }
    }
  </style>
</svg>