<svg xmlns="http://www.w3.org/2000/svg" width="173.3" height="70.7"><path fill-rule="evenodd" stroke="#000" stroke-linecap="round" stroke-width=".25mm" d="M71.7 70.7H63V0h8.7v32.6h10.4L105.2 0h10L89.8 35.1l25.6 35.6h-10.3L82.9 40.5H71.7v30.2Zm78.9 0h-8.7V7.9h-22.7V0h54.1v7.9h-22.7v62.8Zm-141.9 0H0V0h24.5a40.045 40.045 0 0 1 6.19.454q3.972.622 7.21 2.096 5.6 2.55 8.55 7.75a21.042 21.042 0 0 1 2.117 5.491q.612 2.54.774 5.507A40.298 40.298 0 0 1 49.4 23.5a29.248 29.248 0 0 1-.603 6.093 20.933 20.933 0 0 1-2.847 7.057Q42.5 42 36.5 44.7q-6 2.7-13.8 2.7h-14v23.3Zm0-62.8v31.6h13.6a27.811 27.811 0 0 0 5.619-.535q4.365-.901 7.531-3.315a11.97 11.97 0 0 0 4.118-5.969q.67-2.043.858-4.549A27.103 27.103 0 0 0 40.5 23.1a22.378 22.378 0 0 0-.4-4.375q-.502-2.516-1.635-4.447A11.263 11.263 0 0 0 36.4 11.7a12.855 12.855 0 0 0-4.651-2.695Q28.52 7.9 24.1 7.9H8.7Z" font-size="12" style="stroke:#000;stroke-width:.25mm;fill:#000" vector-effect="non-scaling-stroke"/></svg>