<svg xmlns="http://www.w3.org/2000/svg" width="510.301" height="100.8"><path fill-rule="evenodd" stroke="#000" stroke-linecap="round" stroke-width=".25mm" d="M242.101 41.3V74h-19.6V43.9a13.008 13.008 0 0 0-.292-2.843q-.43-1.92-1.494-3.334a7.742 7.742 0 0 0-.714-.823 8.311 8.311 0 0 0-4.259-2.25 12.241 12.241 0 0 0-2.541-.25q-4.3 0-6.8 2.5a8.179 8.179 0 0 0-2.119 3.79q-.333 1.271-.375 2.775a15.683 15.683 0 0 0-.006.435V74h-19.6V43.9a13.279 13.279 0 0 0-.283-2.828q-.55-2.522-2.167-4.172-2.45-2.5-6.75-2.5-4.378 0-6.875 2.475a8.008 8.008 0 0 0-.025.025 8.179 8.179 0 0 0-2.119 3.79q-.333 1.271-.375 2.775a15.683 15.683 0 0 0-.006.435V74h-19.6V17.9h19.6v7.4a18.897 18.897 0 0 1 6.734-5.742 21.544 21.544 0 0 1 .016-.008 19.086 19.086 0 0 1 6.277-1.937 24.445 24.445 0 0 1 3.273-.213q6.2 0 11.05 2.7 4.85 2.7 7.65 7.6 3-4.6 7.9-7.45 4.9-2.85 10.8-2.85a28.251 28.251 0 0 1 7.031.827 19.655 19.655 0 0 1 9.619 5.573q5.903 6.244 6.046 16.963a40.108 40.108 0 0 1 .004.537Zm-173.6-14.6h-21.1q-1.7-2.8-4.65-4.3t-6.95-1.5a18.353 18.353 0 0 0-5.059.661 13.625 13.625 0 0 0-6.591 4.139 16.28 16.28 0 0 0-3.589 7.022q-.609 2.473-.657 5.382a30.301 30.301 0 0 0-.004.496 29.168 29.168 0 0 0 .444 5.263q.978 5.321 4.106 8.587 4.55 4.75 13.25 4.75a17.634 17.634 0 0 0 6.319-1.074q4.599-1.752 7.384-6.363a20.822 20.822 0 0 0 .997-1.863h-19.7V33.8h36.6v19a34.938 34.938 0 0 1-5.157 8.638 40.9 40.9 0 0 1-1.593 1.862q-4.45 4.9-11.25 8.05-6.8 3.15-15.5 3.15-10.6 0-18.75-4.55t-12.6-12.7A36.407 36.407 0 0 1 .297 43.858 45.63 45.63 0 0 1 .001 38.6a41.58 41.58 0 0 1 1.331-10.702 35.097 35.097 0 0 1 3.119-7.848q4.45-8.15 12.55-12.7a35.41 35.41 0 0 1 12.935-4.19 44.933 44.933 0 0 1 5.765-.36 45.587 45.587 0 0 1 9.689.977A31.944 31.944 0 0 1 57.701 9.2q8.7 6.4 10.8 17.5Zm403 47.3h-23.9l-15.5-23v23h-19.6V0h19.6v39.9l15.5-22h23.5l-22.1 28.2 22.5 27.9Zm-107.4-7.8v34.6h-19.6V17.9h19.6v7.8a16.582 16.582 0 0 1 6.239-6.055 19.63 19.63 0 0 1 .261-.145 18.393 18.393 0 0 1 5.836-1.977 24.534 24.534 0 0 1 4.064-.323q6.7 0 12.15 3.5a23.08 23.08 0 0 1 7.225 7.483 28.847 28.847 0 0 1 1.375 2.517 30.788 30.788 0 0 1 2.63 8.494 41.441 41.441 0 0 1 .52 6.706 40.734 40.734 0 0 1-.692 7.684 30.751 30.751 0 0 1-2.458 7.566 26.36 26.36 0 0 1-3.928 6.021 22.089 22.089 0 0 1-4.672 4.029q-5.45 3.5-12.15 3.5a23.723 23.723 0 0 1-4.848-.472 17.71 17.71 0 0 1-5.002-1.828q-4.15-2.3-6.55-6.2Zm-58-16.3h-37.1a16.176 16.176 0 0 0 .376 2.638q.322 1.373.89 2.45a7.258 7.258 0 0 0 1.284 1.762q2.25 2.25 5.75 2.25 4.394 0 6.537-3.539a9.873 9.873 0 0 0 .463-.861h20.9q-1.3 5.8-5.05 10.35a25.899 25.899 0 0 1-8.92 6.902 30.062 30.062 0 0 1-.53.248 29.104 29.104 0 0 1-9.951 2.501 34.872 34.872 0 0 1-2.649.099 33.59 33.59 0 0 1-8.297-.988 27.856 27.856 0 0 1-6.453-2.512q-6.45-3.5-10.1-10a28.129 28.129 0 0 1-3.199-9.397 37.215 37.215 0 0 1-.451-5.903 36.172 36.172 0 0 1 .765-7.613 27.377 27.377 0 0 1 2.835-7.637q3.6-6.45 10.05-9.95a28.832 28.832 0 0 1 10.157-3.208 36.638 36.638 0 0 1 4.693-.292 34.502 34.502 0 0 1 8.054.904 28 28 0 0 1 6.646 2.496q6.4 3.4 10 9.75a27.345 27.345 0 0 1 3.172 9.288 36.124 36.124 0 0 1 .428 5.662q0 2.3-.3 4.6Zm-190.8-24.2v-7.8h19.6V74h-19.6v-7.8a16.425 16.425 0 0 1-6.027 5.906 19.64 19.64 0 0 1-.523.294 18.82 18.82 0 0 1-6.041 2.003 24.793 24.793 0 0 1-3.909.297q-6.7 0-12.15-3.5a22.916 22.916 0 0 1-7.105-7.319 28.852 28.852 0 0 1-1.495-2.731 31.202 31.202 0 0 1-2.63-8.536 41.594 41.594 0 0 1-.52-6.714 40.587 40.587 0 0 1 .686-7.643 30.339 30.339 0 0 1 2.464-7.557 26.245 26.245 0 0 1 3.996-6.06 22.242 22.242 0 0 1 4.604-3.94q5.45-3.5 12.15-3.5 5.8 0 10 2.3a17.026 17.026 0 0 1 5.144 4.241 16.288 16.288 0 0 1 1.356 1.959Zm389.3 31.6h5.7V74h-8.5a31.4 31.4 0 0 1-8.378-1.019q-9.585-2.659-12.169-12.255a30.922 30.922 0 0 1-.953-8.026V34.2h-6.9V17.9h6.9V4.3h19.7v13.6h10.2v16.3h-10.2V53q0 2.3 1.05 3.3.984.938 3.244.996a11.838 11.838 0 0 0 .306.004ZM112.985 38.137a9.737 9.737 0 0 0-.634-.737 9.589 9.589 0 0 0-6.966-3.097 11.746 11.746 0 0 0-.284-.003 10.389 10.389 0 0 0-3.909.715 9.582 9.582 0 0 0-3.391 2.335 10.014 10.014 0 0 0-2.374 4.311q-.526 1.897-.526 4.239a16.251 16.251 0 0 0 .366 3.555q.55 2.455 1.927 4.269a9.944 9.944 0 0 0 .607.726 9.446 9.446 0 0 0 6.886 3.143 12.003 12.003 0 0 0 .414.007 9.594 9.594 0 0 0 7.052-2.898 11.581 11.581 0 0 0 .198-.202q2.795-2.938 2.942-8.031a19.82 19.82 0 0 0 .008-.569q0-4.784-2.316-7.763ZM384.501 45.9a16.497 16.497 0 0 0-.333-3.419q-.658-3.106-2.617-5.131a9.662 9.662 0 0 0-6.983-3.047 11.95 11.95 0 0 0-.267-.003 9.594 9.594 0 0 0-7.053 2.898 11.581 11.581 0 0 0-.197.202 10.302 10.302 0 0 0-2.518 4.703q-.432 1.73-.432 3.797 0 4.541 2.011 7.446a9.587 9.587 0 0 0 .939 1.154 9.589 9.589 0 0 0 6.966 3.097 11.746 11.746 0 0 0 .284.003 9.508 9.508 0 0 0 6.97-2.862 11.61 11.61 0 0 0 .28-.288 10.539 10.539 0 0 0 2.535-4.816q.389-1.602.413-3.482a19.484 19.484 0 0 0 .002-.252Zm-64.195 28.503a15.403 15.403 0 0 0 3.595.397 15.259 15.259 0 0 0 2.856-.256 10.751 10.751 0 0 0 5.394-2.644 9.866 9.866 0 0 0 2.097-2.696 9.589 9.589 0 0 0 1.053-4.504 12.003 12.003 0 0 0-.007-.413 9.446 9.446 0 0 0-3.143-6.887 10.567 10.567 0 0 0-4.597-2.466 14.592 14.592 0 0 0-3.653-.434 15.507 15.507 0 0 0-3.192.312 10.699 10.699 0 0 0-5.158 2.588q-3.15 2.9-3.15 7.3a11.901 11.901 0 0 0 .012.544 9.27 9.27 0 0 0 3.138 6.706 10.656 10.656 0 0 0 4.755 2.453ZM269.101 40.4h17.3a8.668 8.668 0 0 0-.334-2.47 6.543 6.543 0 0 0-2.066-3.18 8.479 8.479 0 0 0-4.483-1.952 11.391 11.391 0 0 0-1.517-.098 10.872 10.872 0 0 0-2.663.31 7.925 7.925 0 0 0-3.237 1.64q-2.3 1.95-3 5.75Z" font-size="12" style="stroke:#000;stroke-width:.25mm;fill:#000" vector-effect="non-scaling-stroke"/></svg>